<mxfile host="app.diagrams.net" agent="Mozilla/5.0 (Windows NT 10.0; Win64; x64) AppleWebKit/537.36 (KHTML, like Gecko) Chrome/129.0.0.0 Safari/537.36" version="24.8.4">
  <diagram name="Page-1" id="97916047-d0de-89f5-080d-49f4d83e522f">
    <mxGraphModel dx="1687" dy="918" grid="1" gridSize="10" guides="1" tooltips="1" connect="1" arrows="1" fold="1" page="1" pageScale="1.5" pageWidth="1169" pageHeight="827" background="none" math="0" shadow="0">
      <root>
        <mxCell id="0" />
        <mxCell id="1" parent="0" />
        <mxCell id="Rf0LHBqG_IpKLC23gJ2N-55" value="MAZE" style="rounded=1;whiteSpace=wrap;html=1;fillColor=#1ba1e2;strokeColor=#006EAF;glass=0;shadow=0;fontColor=#ffffff;" vertex="1" parent="1">
          <mxGeometry x="877" y="110" width="120" height="60" as="geometry" />
        </mxCell>
        <mxCell id="Rf0LHBqG_IpKLC23gJ2N-57" value="one player" style="rounded=1;whiteSpace=wrap;html=1;" vertex="1" parent="1">
          <mxGeometry x="560" y="230" width="120" height="60" as="geometry" />
        </mxCell>
        <mxCell id="Rf0LHBqG_IpKLC23gJ2N-58" value="two player" style="rounded=1;whiteSpace=wrap;html=1;" vertex="1" parent="1">
          <mxGeometry x="160" y="230" width="120" height="60" as="geometry" />
        </mxCell>
        <mxCell id="Rf0LHBqG_IpKLC23gJ2N-61" value="main menu" style="rounded=1;whiteSpace=wrap;html=1;" vertex="1" parent="1">
          <mxGeometry x="1330" y="230" width="120" height="60" as="geometry" />
        </mxCell>
        <mxCell id="Rf0LHBqG_IpKLC23gJ2N-65" value="title&amp;nbsp;" style="rounded=1;whiteSpace=wrap;html=1;" vertex="1" parent="1">
          <mxGeometry x="1330" y="410" width="120" height="60" as="geometry" />
        </mxCell>
        <mxCell id="Rf0LHBqG_IpKLC23gJ2N-66" value="background" style="rounded=1;whiteSpace=wrap;html=1;" vertex="1" parent="1">
          <mxGeometry x="1330" y="320" width="120" height="60" as="geometry" />
        </mxCell>
        <mxCell id="Rf0LHBqG_IpKLC23gJ2N-67" value="window name" style="rounded=1;whiteSpace=wrap;html=1;" vertex="1" parent="1">
          <mxGeometry x="1330" y="500" width="120" height="60" as="geometry" />
        </mxCell>
        <mxCell id="Rf0LHBqG_IpKLC23gJ2N-69" value="controls" style="rounded=1;whiteSpace=wrap;html=1;" vertex="1" parent="1">
          <mxGeometry x="1010" y="230" width="120" height="60" as="geometry" />
        </mxCell>
        <mxCell id="Rf0LHBqG_IpKLC23gJ2N-70" value="mouse position" style="rounded=1;whiteSpace=wrap;html=1;" vertex="1" parent="1">
          <mxGeometry x="1010" y="320" width="120" height="60" as="geometry" />
        </mxCell>
        <mxCell id="Rf0LHBqG_IpKLC23gJ2N-71" value="clicking buttons" style="rounded=1;whiteSpace=wrap;html=1;" vertex="1" parent="1">
          <mxGeometry x="1010" y="410" width="120" height="60" as="geometry" />
        </mxCell>
        <mxCell id="Rf0LHBqG_IpKLC23gJ2N-72" value="display&amp;nbsp; buttons" style="rounded=1;whiteSpace=wrap;html=1;" vertex="1" parent="1">
          <mxGeometry x="920" y="500" width="120" height="60" as="geometry" />
        </mxCell>
        <mxCell id="Rf0LHBqG_IpKLC23gJ2N-73" value="button purpose" style="rounded=1;whiteSpace=wrap;html=1;" vertex="1" parent="1">
          <mxGeometry x="1100" y="500" width="120" height="60" as="geometry" />
        </mxCell>
        <mxCell id="Rf0LHBqG_IpKLC23gJ2N-74" value="hovering change colour" style="rounded=1;whiteSpace=wrap;html=1;" vertex="1" parent="1">
          <mxGeometry x="920" y="600" width="120" height="60" as="geometry" />
        </mxCell>
        <mxCell id="Rf0LHBqG_IpKLC23gJ2N-75" value="button function works" style="rounded=1;whiteSpace=wrap;html=1;" vertex="1" parent="1">
          <mxGeometry x="1100" y="600" width="120" height="60" as="geometry" />
        </mxCell>
        <mxCell id="Rf0LHBqG_IpKLC23gJ2N-76" value="maze generation" style="rounded=1;whiteSpace=wrap;html=1;" vertex="1" parent="1">
          <mxGeometry x="440" y="320" width="120" height="60" as="geometry" />
        </mxCell>
        <mxCell id="Rf0LHBqG_IpKLC23gJ2N-77" value="maze solving" style="rounded=1;whiteSpace=wrap;html=1;" vertex="1" parent="1">
          <mxGeometry x="680" y="320" width="120" height="60" as="geometry" />
        </mxCell>
        <mxCell id="Rf0LHBqG_IpKLC23gJ2N-78" value="click start positon" style="rounded=1;whiteSpace=wrap;html=1;" vertex="1" parent="1">
          <mxGeometry x="610" y="410" width="120" height="60" as="geometry" />
        </mxCell>
        <mxCell id="Rf0LHBqG_IpKLC23gJ2N-79" value="click end position" style="rounded=1;whiteSpace=wrap;html=1;" vertex="1" parent="1">
          <mxGeometry x="610" y="500" width="120" height="60" as="geometry" />
        </mxCell>
        <mxCell id="Rf0LHBqG_IpKLC23gJ2N-80" value="generate path between" style="rounded=1;whiteSpace=wrap;html=1;" vertex="1" parent="1">
          <mxGeometry x="610" y="600" width="120" height="60" as="geometry" />
        </mxCell>
        <mxCell id="Rf0LHBqG_IpKLC23gJ2N-81" value="tick show route tick box" style="rounded=1;whiteSpace=wrap;html=1;" vertex="1" parent="1">
          <mxGeometry x="757" y="410" width="120" height="60" as="geometry" />
        </mxCell>
        <mxCell id="Rf0LHBqG_IpKLC23gJ2N-82" value="dispaly route animation" style="rounded=1;whiteSpace=wrap;html=1;" vertex="1" parent="1">
          <mxGeometry x="757" y="500" width="120" height="60" as="geometry" />
        </mxCell>
      </root>
    </mxGraphModel>
  </diagram>
</mxfile>
